<?xml version="1.0" encoding="utf-8"?>
<!-- Generator: Adobe Illustrator 25.3.0, SVG Export Plug-In . SVG Version: 6.00 Build 0)  -->
<svg version="1.2" baseProfile="tiny" id="Capa_1" xmlns="http://www.w3.org/2000/svg" xmlns:xlink="http://www.w3.org/1999/xlink"
	 x="0px" y="0px" viewBox="0 0 287.2 72.9" overflow="visible" xml:space="preserve">
<g id="SvgjsG1912" transform="matrix(0.9391450076683645,0,0,0.9391450076683645,-2.465255645129457,0)">
	<g>
		<g>
			<g>
				<g>
					<path fill="#FFFFFF" d="M31.4,15c-0.2,7.1,4.7,10.2,6.3,10.9c0.5-1.5,0.9-5.1-0.2-11.7C35.8,4.3,39.2,0,39.2,0
						C35.8,2.5,31.6,8.5,31.4,15z"/>
				</g>
				<g>
					<path fill="#FFFFFF" d="M41.7,9.1c-1-1.7-1.9-3.4-2.1-5.1c-0.2-1.5-0.2-2.9-0.1-4c0,0-2.9,4.4-0.8,14.3
						c1.3,6.2,0.9,9.8,0.5,11.4c1.6-0.9,5.1-3.5,5.2-9C44.5,13.9,43.1,11.5,41.7,9.1z"/>
				</g>
			</g>
			<g>
				<g>
					<path fill="#FFFFFF" d="M17.6,30c4.9,5.2,10.5,3.9,12.2,3.3c-0.7-1.4-3-4.2-8.4-8.1c-8.2-5.9-8.9-11.3-8.9-11.3
						C11.9,18.1,13.2,25.3,17.6,30z"/>
				</g>
				<g>
					<path fill="#FFFFFF" d="M20.8,18.6c-1.9-0.5-3.8-1-5.1-2.1c-1.2-1-2.2-1.9-2.9-2.8c0,0,1.1,5.2,9.6,10.7
						c5.3,3.4,7.6,6.3,8.4,7.7c0.5-1.7,1.2-6.1-2.7-10.1C26.1,20,23.4,19.3,20.8,18.6z"/>
				</g>
			</g>
			<g>
				<g>
					<path fill="#FFFFFF" d="M18.7,49.3c7.1,0.2,10.2-4.7,10.9-6.3c-1.5-0.5-5.1-0.9-11.7,0.2C8,44.9,3.7,41.5,3.7,41.5
						C6.2,44.9,12.2,49.1,18.7,49.3z"/>
				</g>
				<g>
					<path fill="#FFFFFF" d="M12.8,39c-1.8,1-3.4,1.9-5.1,2.1c-1.5,0.2-2.9,0.2-4,0.1c0,0,4.4,2.9,14.3,0.8
						c6.2-1.3,9.8-0.9,11.4-0.5c-0.9-1.6-3.5-5.1-9-5.2C17.6,36.3,15.2,37.7,12.8,39z"/>
				</g>
			</g>
			<g>
				<g>
					<path fill="#FFFFFF" d="M51,18.4c-5.2,4.9-3.9,10.5-3.3,12.2c1.4-0.7,4.2-3,8.1-8.4c5.9-8.2,11.3-8.9,11.3-8.9
						C62.9,12.7,55.7,14,51,18.4z"/>
				</g>
				<g>
					<path fill="#FFFFFF" d="M62.4,21.6c0.5-1.9,1-3.8,2.1-5.1c0.9-1.2,1.9-2.2,2.8-2.9c0,0-5.2,1.1-10.7,9.6
						c-3.4,5.3-6.3,7.6-7.7,8.4c1.7,0.5,6.1,1.2,10.1-2.7C61,26.9,61.7,24.2,62.4,21.6z"/>
				</g>
			</g>
			<g>
				<g>
					<path fill="#FFFFFF" d="M59.6,34.5c-7.1-0.2-10.2,4.7-10.9,6.3c1.5,0.5,5.1,0.9,11.7-0.2c10-1.7,14.3,1.7,14.3,1.7
						C72.1,38.9,66.1,34.7,59.6,34.5z"/>
				</g>
				<g>
					<path fill="#FFFFFF" d="M65.5,44.8c1.8-1,3.4-1.9,5.1-2.1c1.5-0.2,2.9-0.2,4-0.1c0,0-4.4-2.9-14.3-0.8
						c-6.2,1.3-9.8,0.9-11.4,0.5c0.9,1.5,3.4,5.1,9,5.2C60.7,47.5,63.1,46.1,65.5,44.8z"/>
				</g>
			</g>
			<g>
				<g>
					<path fill="#FFFFFF" d="M46.2,9.6c-1.5,3.6,0.4,6,1.1,6.7c0.5-0.7,1.4-2.4,2.1-5.9C50.4,5.1,53,3.5,53,3.5
						C50.8,4.2,47.5,6.4,46.2,9.6z"/>
				</g>
				<g>
					<path fill="#FFFFFF" d="M52.5,8.6c-0.2-1.1-0.3-2.1-0.1-3c0.2-0.8,0.4-1.5,0.7-2c0,0-2.3,1.7-3.1,7.1c-0.5,3.4-1.4,5.1-1.9,5.9
						c0.9-0.1,3.2-0.8,4.3-3.5C52.9,11.5,52.7,10.1,52.5,8.6z"/>
				</g>
			</g>
			<g>
				<g>
					<path fill="#FFFFFF" d="M22.2,12.1c1.5,3.6,4.5,4,5.5,4c-0.1-0.8-0.7-2.7-2.7-5.7C22,5.9,22.7,3,22.7,3
						C21.6,5,20.8,8.9,22.2,12.1z"/>
				</g>
				<g>
					<path fill="#FFFFFF" d="M25.9,7c-0.9-0.6-1.7-1.2-2.2-2c-0.4-0.7-0.7-1.4-0.9-2c0,0-0.4,2.8,2.8,7.2c2,2.8,2.6,4.6,2.8,5.5
						c0.6-0.8,1.8-2.8,0.6-5.6C28.3,8.7,27.1,7.8,25.9,7z"/>
				</g>
			</g>
			<g>
				<g>
					<path fill="#FFFFFF" d="M8.7,34.2c3.6,1.5,6-0.4,6.7-1.1c-0.7-0.5-2.4-1.4-5.9-2.1c-5.3-1.1-6.9-3.6-6.9-3.6
						C3.3,29.6,5.5,32.9,8.7,34.2z"/>
				</g>
				<g>
					<path fill="#FFFFFF" d="M7.7,27.9c-1.1,0.2-2.1,0.3-3,0.1c-0.8-0.2-1.5-0.5-2-0.7c0,0,1.7,2.3,7.1,3.1c3.4,0.5,5.1,1.4,5.9,1.9
						c-0.1-0.9-0.8-3.2-3.6-4.3C10.6,27.5,9.1,27.7,7.7,27.9z"/>
				</g>
			</g>
			<g>
				<g>
					<path fill="#FFFFFF" d="M67,25.6c-3.6,1.5-4,4.5-4,5.5c0.8-0.1,2.7-0.7,5.7-2.7c4.5-3,7.4-2.3,7.4-2.3
						C74.1,25.1,70.3,24.3,67,25.6z"/>
				</g>
				<g>
					<path fill="#FFFFFF" d="M72.2,29.4c0.6-0.9,1.2-1.7,2-2.2c0.7-0.4,1.4-0.7,2-0.9c0,0-2.8-0.5-7.2,2.8c-2.7,2-4.6,2.6-5.5,2.8
						c0.8,0.6,2.8,1.8,5.6,0.6C70.4,31.8,71.3,30.6,72.2,29.4z"/>
				</g>
			</g>
			<path fill="#FFFFFF" d="M37.5,53c1.2-0.9,2.4-2,3.5-3.1c2.9-3.2,4.3-8.4,4.3-8.4l-0.6-0.6c0,0-2.1,4.9-5.6,7.6
				c-0.6,0.4-1.2,0.9-1.8,1.3c-0.4-10.4,1.4-18.2,1.9-20.2l-1.5-0.5c0,0-4.2,10.6-4.2,25.1c0,11.6,4.8,23.3,4.8,23.3l6.3-0.3
				c0,0-5.9-11.3-7-22.8C37.5,54,37.5,53.5,37.5,53z"/>
		</g>
	</g>
</g>
<g id="SvgjsG1913" transform="matrix(0.9064976972265515,0,0,0.9064976972265515,105.91790774297937,23.412105755249165)">
	<path fill="#FFFFFF" d="M-9.4,20.9c0.3,0,0.5,0.2,0.5,0.5v3.5c0,0.3-0.2,0.5-0.5,0.5H-23c-0.3,0-0.5-0.2-0.5-0.5V4
		c0-0.3,0.2-0.5,0.5-0.5h13.6C-9.2,3.5-9,3.7-9,4v3.5c0,0.3-0.2,0.5-0.5,0.5h-9v4.2h8.3c0.3,0,0.5,0.2,0.5,0.5v3.5
		c0,0.3-0.2,0.5-0.5,0.5h-8.3v4.3H-9.4z M10.2,19.1l2.5,2.7c0.2,0.2,0.2,0.4,0,0.7C10.8,24.4,8,25.7,5,25.7
		c-6.2,0-11.3-4.9-11.3-11.2c0-6.3,5-11.2,11.3-11.2c3,0,5.8,1.2,7.7,3.2c0.2,0.2,0.2,0.4,0,0.7l-2.5,2.7c-0.2,0.2-0.4,0.2-0.7,0
		C8.3,8.9,6.8,8.2,5,8.2c-3.4,0-6,2.7-6,6.3c0,3.6,2.7,6.3,6,6.3c1.9,0,3.4-0.7,4.6-1.7C9.7,18.9,10,18.9,10.2,19.1z M26.4,25.7
		c-6.1,0-11.2-5-11.2-11.2c0-6.2,5-11.2,11.2-11.2c6.2,0,11.2,5,11.2,11.2C37.6,20.7,32.6,25.7,26.4,25.7z M26.4,20.8
		c3.5,0,6.2-2.8,6.2-6.3c0-3.6-2.7-6.3-6.2-6.3c-3.4,0-6.1,2.8-6.1,6.3C20.3,18,23,20.8,26.4,20.8z M54.8,20.9
		c0.3,0,0.5,0.2,0.5,0.5v3.5c0,0.3-0.2,0.5-0.5,0.5H41.3c-0.3,0-0.5-0.2-0.5-0.5V4c0-0.3,0.2-0.5,0.5-0.5h4.1c0.3,0,0.5,0.2,0.5,0.5
		v16.9H54.8z M72.1,20.9c0.3,0,0.5,0.2,0.5,0.5v3.5c0,0.3-0.2,0.5-0.5,0.5H58.5c-0.3,0-0.5-0.2-0.5-0.5V4c0-0.3,0.2-0.5,0.5-0.5
		h13.6c0.3,0,0.5,0.2,0.5,0.5v3.5c0,0.3-0.2,0.5-0.5,0.5h-9v4.2h8.3c0.3,0,0.5,0.2,0.5,0.5v3.5c0,0.3-0.2,0.5-0.5,0.5h-8.3v4.3H72.1
		z M94.6,24.7c0.1,0.3,0,0.5-0.4,0.5h-4.3c-0.2,0-0.4-0.1-0.5-0.4l-1-3h-7.8l-1,3c-0.1,0.3-0.3,0.4-0.5,0.4h-4.3
		c-0.3,0-0.5-0.2-0.4-0.5l7.6-20.8c0.1-0.2,0.3-0.4,0.5-0.4h3.7c0.2,0,0.5,0.1,0.6,0.4L94.6,24.7z M82,17.6h5l-2.5-7.5L82,17.6z
		 M110,17.6l3.8,7.2c0.2,0.3,0,0.5-0.4,0.5h-4c-0.3,0-0.4-0.1-0.5-0.4l-3.4-6.7h-0.4H102v6.6c0,0.3-0.2,0.5-0.5,0.5h-4.1
		c-0.3,0-0.5-0.2-0.5-0.5V4c0-0.3,0.2-0.5,0.5-0.5h7.7c6.8,0,8.9,2.4,8.9,7.3C114,14.3,113,16.5,110,17.6L110,17.6z M102,7.9v5.9
		h3.5c2.5,0,3.7-0.5,3.7-2.9c0-2.4-1.3-2.9-3.7-2.9H102z M134.4,3.5c0.3,0,0.5,0.2,0.5,0.5v20.8c0,0.3-0.2,0.5-0.5,0.5h-4.6
		c-0.2,0-0.4-0.1-0.6-0.3l-7.4-13.3v13.1c0,0.3-0.2,0.5-0.5,0.5h-4.1c-0.3,0-0.5-0.2-0.5-0.5V4c0-0.3,0.2-0.5,0.5-0.5h4.6
		c0.2,0,0.4,0.1,0.6,0.3l7.4,13.3V4c0-0.3,0.2-0.5,0.5-0.5C130.3,3.5,134.4,3.5,134.4,3.5z M153.6,7.9h-4.9v12.9h4.9
		c0.3,0,0.5,0.2,0.5,0.5v3.5c0,0.3-0.2,0.5-0.5,0.5h-14.9c-0.3,0-0.5-0.2-0.5-0.5v-3.5c0-0.3,0.2-0.5,0.5-0.5h4.9V7.9h-4.9
		c-0.3,0-0.5-0.2-0.5-0.5V4c0-0.3,0.2-0.5,0.5-0.5h14.9c0.3,0,0.5,0.2,0.5,0.5v3.5C154.1,7.8,153.9,7.9,153.6,7.9z M175.1,3.5
		c0.3,0,0.5,0.2,0.5,0.5v20.8c0,0.3-0.2,0.5-0.5,0.5h-4.6c-0.2,0-0.4-0.1-0.6-0.3l-7.4-13.3v13.1c0,0.3-0.2,0.5-0.5,0.5H158
		c-0.3,0-0.5-0.2-0.5-0.5V4c0-0.3,0.2-0.5,0.5-0.5h4.6c0.2,0,0.4,0.1,0.6,0.3l7.4,13.3V4c0-0.3,0.2-0.5,0.5-0.5
		C171,3.5,175.1,3.5,175.1,3.5z M199.5,12.8c0.3,0,0.5,0.2,0.5,0.5v2.2c0,5.6-3.6,10.2-9.8,10.2c-6.2,0-11.4-5-11.4-11.2
		c0-6.2,5-11.2,11.3-11.2c3,0,5.8,1.2,7.7,3.2c0.2,0.2,0.2,0.4,0,0.7l-2.5,2.7c-0.2,0.2-0.4,0.2-0.7,0c-1.2-1-2.7-1.7-4.6-1.7
		c-3.4,0-6,2.7-6,6.2s2.5,6.3,6.1,6.3c3.2,0,4.8-1.8,4.9-3.8h-4.7c-0.3,0-0.5-0.2-0.5-0.5v-3.2c0-0.3,0.2-0.5,0.5-0.5H199.5
		L199.5,12.8z"/>
</g>
</svg>
